<svg width="20" height="20" viewBox="0 0 20 20" fill="none" xmlns="http://www.w3.org/2000/svg">
<path d="M16.5502 19.0729L16.5501 19.0728L16.5443 19.0788C16.2537 19.3769 15.8537 19.4981 15.404 19.5C13.1785 19.4308 11.0368 18.3343 9.21419 17.151C6.23051 14.9787 3.52306 12.307 1.82935 9.10489C1.15299 7.70441 0.436717 6.05575 0.504399 4.66105L0.504847 4.65181L0.504953 4.64257C0.510833 4.13138 0.649224 3.72318 0.914995 3.47994L0.923107 3.47251L0.930884 3.46474L3.7353 0.661736C3.93611 0.49578 4.06815 0.490931 4.13965 0.5055C4.22476 0.522845 4.35482 0.594867 4.49248 0.801273L6.74376 5.07028C6.87825 5.36724 6.80521 5.68773 6.58209 5.91708L5.54542 6.95322L5.51795 6.98068L5.49505 7.01205C5.38437 7.16365 5.29515 7.36278 5.29291 7.5988L5.29228 7.66475L5.30878 7.72861C5.74401 9.41335 7.03896 10.9159 8.12621 11.9134C8.28833 12.0622 8.46089 12.2277 8.6412 12.4007C9.01545 12.7598 9.42315 13.151 9.84047 13.4905C10.4695 14.0023 11.1962 14.4653 12.0457 14.6481C12.1662 14.6804 12.3176 14.7073 12.4766 14.7001C12.6413 14.6926 12.862 14.6453 13.0449 14.4752L13.0531 14.4676L13.061 14.4596L14.242 13.2585C14.57 13.0226 14.9319 12.9885 15.1248 13.1005L15.2412 13.1681H15.2605L19.2283 15.5106C19.5613 15.7227 19.5639 16.0729 19.3661 16.2795L16.5502 19.0729Z" stroke="#BCBCBC"/>
</svg>
